<svg xmlns="http://www.w3.org/2000/svg" version="1.1" xmlns:xlink="http://www.w3.org/1999/xlink" xmlns:svgjs="http://svgjs.dev/svgjs" width="200" height="120" viewBox="0 0 2000 434"><g transform="matrix(1,0,0,1,-1.2121212121212466,0.6577503015678019)"><svg viewBox="0 0 396 86" data-background-color="#ffffff" preserveAspectRatio="xMidYMid meet" height="434" width="2000" xmlns="http://www.w3.org/2000/svg" xmlns:xlink="http://www.w3.org/1999/xlink"><g id="tight-bounds" transform="matrix(1,0,0,1,0.2400000000000091,-0.13033761736136285)"><svg viewBox="0 0 395.52 86.26067523472274" height="86.26067523472274" width="395.52"><g><svg viewBox="0 0 531.1486167073006 115.84050952457697" height="86.26067523472274" width="395.52"><g transform="matrix(1,0,0,1,0,16.00979545527801)"><svg viewBox="0 0 395.52 83.82091861402095" height="83.82091861402095" width="395.52"><g id="textblocktransform"><svg viewBox="0 0 395.52 83.82091861402095" height="83.82091861402095" width="395.52" id="textblock"><g><svg viewBox="0 0 395.52 83.82091861402095" height="83.82091861402095" width="395.52"><g transform="matrix(1,0,0,1,0,0)"><svg width="395.52" viewBox="0.25 -39 186.14 39.45" height="83.82091861402095" data-palette-color="#ed0836"><path d="M0.25-25.45L0.25-25.45Q0.25-25.95 1.7-26.78 3.15-27.6 5.65-28.3 8.15-29 10.55-29L10.55-29Q15.4-29 15.55-26.65L15.55-26.65 16.8-10.75 17.45-10.75 18.55-25.85Q18.65-27.1 22-28.05 25.35-29 27.9-29 30.45-29 31.73-28.55 33-28.1 33.35-27.63 33.7-27.15 33.7-26.8 33.7-26.45 31.58-21.65 29.45-16.85 23.1-1.2L23.1-1.2Q22.6 0 14.95 0L14.95 0Q12.55 0 11.8-0.28 11.05-0.55 10.8-1.2L10.8-1.2Q7.35-9.9 3.8-17.57 0.25-25.25 0.25-25.45ZM49.45-25.85L49.45-25.85 49.45-1.2Q49.45-0.65 46.57-0.33 43.7 0 40.67 0 37.65 0 36.77-0.28 35.9-0.55 35.9-1.2L35.9-1.2 35.9-24.95Q35.9-26.05 38.72-27.13 41.55-28.2 44.9-28.2L44.9-28.2Q49.45-28.2 49.45-25.85ZM42.65-39L42.65-39Q45.95-39 47.82-38.02 49.7-37.05 49.7-34.5L49.7-34.5Q49.7-30 42.7-30 35.7-30 35.7-34.5 35.7-39 42.65-39ZM66.8 0.45L66.8 0.45Q58.5 0.45 54.65-1.15L54.65-1.15Q52.7-2 52.7-2.8L52.7-2.8Q52.7-4.85 53.9-7.6 55.1-10.35 56-10.35L56-10.35Q56.5-10.35 59.37-9.25 62.25-8.15 64.22-8.15 66.2-8.15 66.82-8.4 67.45-8.65 67.45-9.38 67.45-10.1 66.45-10.53 65.45-10.95 63.95-11.1 62.45-11.25 60.72-11.7 59-12.15 57.5-12.85 56-13.55 55-15.18 54-16.8 54-18.68 54-20.55 54.1-21.48 54.2-22.4 54.92-24.08 55.65-25.75 56.97-26.8 58.3-27.85 61.07-28.7 63.85-29.55 67.3-29.55 70.75-29.55 73.07-29.33 75.4-29.1 76.72-28.75 78.05-28.4 78.9-27.95L78.9-27.95Q80.35-27.2 80.35-26.3L80.35-26.3Q80.35-24.35 78.95-21.8 77.55-19.25 76.72-19.25 75.9-19.25 73.15-20.13 70.4-21 69.1-21L69.1-21Q67-21 67-19.8L67-19.8Q67-19.05 68.42-18.68 69.85-18.3 71.85-17.9 73.85-17.5 75.87-16.78 77.9-16.05 79.32-14.15 80.75-12.25 80.75-9.35L80.75-9.35Q80.75 0.45 66.8 0.45ZM97.49-25.85L97.49-25.85 97.49-1.2Q97.49-0.65 94.62-0.33 91.74 0 88.72 0 85.69 0 84.82-0.28 83.94-0.55 83.94-1.2L83.94-1.2 83.94-24.95Q83.94-26.05 86.77-27.13 89.59-28.2 92.94-28.2L92.94-28.2Q97.49-28.2 97.49-25.85ZM90.69-39L90.69-39Q93.99-39 95.87-38.02 97.74-37.05 97.74-34.5L97.74-34.5Q97.74-30 90.74-30 83.74-30 83.74-34.5 83.74-39 90.69-39ZM120.89-0.45Q119.99 0.4 116.79 0.4 113.59 0.4 111.49-0.03 109.39-0.45 107.49-1.7L107.49-1.7Q103.84-4.15 103.84-11.9L103.84-11.9 103.84-19.7 101.34-19.7Q100.79-19.7 100.39-20.85 99.99-22 99.99-24 99.99-26 100.62-27.53 101.24-29.05 102.24-29.05L102.24-29.05 103.84-29.05 103.84-35.1Q103.84-36.65 106.87-37.6 109.89-38.55 112.79-38.55L112.79-38.55Q117.34-38.55 117.34-36.3L117.34-36.3 117.34-29.05 121.04-29.05Q122.34-29.05 122.34-25.3L122.34-25.3Q122.34-22.85 121.77-21.28 121.19-19.7 120.29-19.7L120.29-19.7 117.34-19.7 117.34-10.55Q117.34-9.2 118.49-8.63 119.64-8.05 120.52-8.05 121.39-8.05 121.59-7.2 121.79-6.35 121.79-4.65L121.79-4.65Q121.79-1.3 120.89-0.45ZM140.74 0.45L140.74 0.45Q136.99 0.45 134.29-0.2 131.59-0.85 129.39-2.5L129.39-2.5Q124.84-5.8 124.84-14.8L124.84-14.8Q124.84-22.8 129.49-26.25L129.49-26.25Q133.84-29.45 140.74-29.45L140.74-29.45Q143.69-29.45 145.79-29.18 147.89-28.9 150.06-28 152.24-27.1 153.56-25.55 154.89-24 155.74-21.28 156.59-18.55 156.59-14.8L156.59-14.8Q156.59-7.2 152.29-3.38 147.99 0.45 140.74 0.45ZM138.99-9.3Q139.34-7.5 139.71-7.15 140.09-6.8 140.71-6.8 141.34-6.8 141.71-7.15 142.09-7.5 142.41-9.3 142.74-11.1 142.74-13.83 142.74-16.55 142.61-18.03 142.49-19.5 142.31-20.3 142.14-21.1 141.84-21.55L141.84-21.55Q141.39-22.2 140.76-22.2 140.14-22.2 139.74-21.83 139.34-21.45 138.99-19.63 138.64-17.8 138.64-14.45 138.64-11.1 138.99-9.3ZM173.09-15.8L173.09-15.8 173.09-1.2Q173.09-0.65 170.26-0.33 167.44 0 164.41 0 161.39 0 160.49-0.28 159.59-0.55 159.59-1.2L159.59-1.2 159.59-25.85Q159.59-26.8 162.36-27.9 165.14-29 168.41-29 171.69-29 172.09-27.2L172.09-27.2 172.59-24.9 172.94-24.9Q173.64-26.8 176.28-28.13 178.94-29.45 181.59-29.45 184.24-29.45 185.31-28.6 186.39-27.75 186.39-26.43 186.39-25.1 186.19-23.05 185.99-21 185.21-18.6 184.44-16.2 183.19-16.2L183.19-16.2Q182.69-16.2 180.04-16.95 177.39-17.7 175.66-17.7 173.94-17.7 173.51-17.2 173.09-16.7 173.09-15.8Z" opacity="1" transform="matrix(1,0,0,1,0,0)" fill="#ed0836" class="wordmark-text-0" data-fill-palette-color="primary" id="text-0"></path></svg></g></svg></g></svg></g></svg></g><g transform="matrix(1,0,0,1,415.3081071827236,0)"><svg viewBox="0 0 115.84050952457697 115.84050952457697" height="115.84050952457697" width="115.84050952457697"><g data-palette-color="#ffc604"><rect width="31.663072603384375" height="115.84050952457697" fill="#ffc604" stroke="transparent" data-fill-palette-color="accent" x="0" fill-opacity="1"></rect><rect width="31.663072603384375" height="115.84050952457697" fill="#ffc604" stroke="transparent" data-fill-palette-color="accent" x="38.61350317485899" fill-opacity="0.75"></rect><rect width="31.663072603384375" height="115.84050952457697" fill="#ffc604" stroke="transparent" data-fill-palette-color="accent" x="77.22700634971798" fill-opacity="0.5"></rect></g></svg></g></svg></g><defs></defs></svg><rect width="395.52" height="86.26067523472274" fill="none" stroke="none" visibility="hidden"></rect></g></svg></g></svg>